<svg width="150" height="78" version="1.1" xmlns="http://www.w3.org/2000/svg" desc="Created with imagetracer.js version 1.2.6" ><path fill="rgb(0,0,0)" stroke="rgb(0,0,0)" stroke-width="1" opacity="0" d="M 0 0 L 150 0 L 150 78 L 0 78 L 0 0 Z M 15 12 L 9 15 Q 4 20 2 28 L 4 40 L 12 52 L 30 65 L 34 65 L 44 59 L 57 45 L 61 35 Q 63 23 58 19 Q 55 14 49 12 Q 37 12 32 18 Q 27 11 15 12 Z M 103 29 L 100 30 L 98 30 L 94 31 L 90 30 L 90 39 L 93 39 L 94 37 L 96 39 Q 101 38 103 40 L 107 38 L 111 40 L 113 39 Q 117 40 115 35 Q 113 33 116 32 L 118 32 L 118 39 L 121 39 L 121 33 Q 124 33 123 30 L 113 30 L 112 29 L 108 30 L 108 35 L 110 35 L 110 36 Q 105 37 107 32 L 103 29 Z M 132 29 L 127 33 L 128 39 L 132 40 L 135 39 L 137 36 L 137 39 Q 141 41 140 37 L 142 38 L 142 39 L 146 39 L 146 30 L 143 30 L 143 33 L 142 32 Q 141 29 137 30 L 137 33 L 136 32 L 132 29 Z M 65 30 L 65 39 Q 70 41 68 36 L 73 35 L 73 39 Q 78 41 76 36 Q 79 35 78 39 L 81 39 L 81 30 L 74 30 L 73 31 L 72 30 L 65 30 Z M 82 30 L 82 39 L 89 39 Q 90 36 86 37 L 86 36 Q 91 38 89 33 L 85 33 L 89 32 L 89 30 L 82 30 Z M 124 30 L 124 39 L 126 39 L 126 31 L 124 30 Z M 64 42 L 64 48 L 68 47 Q 70 48 69 46 L 69 44 L 70 44 L 70 48 Q 73 49 72 46 L 73 46 Q 72 50 77 48 Q 78 45 76 46 L 76 45 Q 78 46 77 42 L 70 42 L 69 43 L 64 42 Z M 78 42 L 78 48 L 82 47 L 90 48 L 94 46 L 94 48 L 99 47 L 103 48 L 103 45 L 101 45 Q 102 41 100 42 L 98 42 Q 95 41 96 45 L 95 45 Q 96 41 93 42 L 91 42 Q 84 40 83 43 L 78 42 Z M 104 42 L 104 48 L 106 48 L 107 45 L 107 48 L 120 48 L 121 47 L 124 48 Q 126 47 125 42 Q 118 40 120 46 Q 116 47 118 42 L 116 42 L 116 46 L 115 42 L 108 42 L 107 44 L 106 44 Q 107 41 104 42 Z M 127 42 L 127 47 L 129 47 L 131 47 L 135 48 L 139 47 Q 138 50 143 48 L 145 48 L 146 48 L 146 42 L 144 43 L 141 42 L 141 45 L 140 42 L 135 42 L 135 46 L 134 46 L 134 42 L 127 42 Z " /><path fill="rgb(0,0,0)" stroke="rgb(0,0,0)" stroke-width="1" opacity="0" d="M 30.5 24 L 40 28.5 L 38 32 L 44 34 L 39 46 L 41 46.5 L 31.5 52 L 24.5 50 L 21 46.5 L 25.5 43 L 28 43 L 29.5 47 L 37 45 L 38 40.5 L 30.5 29 L 23 32.5 L 22 34.5 Q 25 35.8 24 40 L 18.5 42 L 18 33.5 L 24.5 26 L 30.5 24 Z " /><path fill="rgb(0,0,0)" stroke="rgb(0,0,0)" stroke-width="1" opacity="0" d="M 97.5 32 L 98 36.5 L 96 35.5 L 97.5 32 Z " /><path fill="rgb(0,0,0)" stroke="rgb(0,0,0)" stroke-width="1" opacity="0" d="M 102.5 32 L 104 35.5 Q 102.5 38.5 101 35.5 L 102.5 32 Z " /><path fill="rgb(0,0,0)" stroke="rgb(0,0,0)" stroke-width="1" opacity="0" d="M 131.5 32 Q 133.8 31.3 133 33.5 L 133 35.5 Q 133.8 37.8 131.5 37 L 130 33.5 L 131.5 32 Z " /><path fill="rgb(0,0,0)" stroke="rgb(0,0,0)" stroke-width="1" opacity="0" d="M 129 44 L 132 44.5 L 129.5 46 L 129 44 Z " /><path fill="rgb(249,150,2)" stroke="rgb(249,150,2)" stroke-width="1" opacity="0.8823529411764706" d="M 41.5 13 L 50.5 13 L 58 19.5 Q 61.9 23.6 61 32.5 Q 56.2 49.2 43.5 58 L 36.5 63 L 32 64 L 32 53.5 L 33 51 L 43 46.5 L 40 44.5 L 45 34.5 L 39 32 L 41 27 Q 34.9 26.7 32 22.5 Q 31.4 17.4 34.5 16 L 41.5 13 Z " /><path fill="rgb(249,150,2)" stroke="rgb(249,150,2)" stroke-width="1" opacity="0.8823529411764706" d="M 64 42 L 68.5 43 L 69.5 42 L 77 42 Q 78.5 45.7 75.5 45 L 75.5 46 Q 78.1 45.3 77 48 Q 71.8 50.1 73 45.5 L 72 45.5 Q 73 49.3 70 48 L 70 44 L 68.5 44 L 69 45.5 Q 69.8 47.8 67.5 47 L 64 48 L 64 42 Z " /><path fill="rgb(249,150,2)" stroke="rgb(249,150,2)" stroke-width="1" opacity="0.8823529411764706" d="M 78 42 L 82.5 43 Q 84.3 40.3 90.5 42 L 92.5 42 Q 96.3 40.8 95 44.5 L 96 44.5 Q 94.9 41.2 97.5 42 L 99.5 42 Q 102.5 41.2 101 45 L 103 45 L 103 48 L 98.5 47 L 94 48 L 93.5 46 L 89.5 48 L 81.5 47 L 78 48 L 78 42 Z " /><path fill="rgb(249,150,2)" stroke="rgb(249,150,2)" stroke-width="1" opacity="0.8823529411764706" d="M 104 42 Q 106.7 40.9 106 43.5 L 107 43.5 L 107.5 42 L 115 42 L 115.5 46 L 116 42 L 118 42 Q 116.3 47.2 120 46 Q 117.9 39.6 125 42 Q 126.3 46.6 123.5 48 L 120.5 47 L 119.5 48 L 107 48 L 106.5 45 L 106 48 L 104 48 L 104 42 Z " /><path fill="rgb(249,150,2)" stroke="rgb(249,150,2)" stroke-width="1" opacity="0.8823529411764706" d="M 127 42 L 134 42 L 134 45.5 L 135 45.5 L 135 42 L 140 42 L 140.5 45 L 141 42 L 143.5 43 L 146 42 L 146 47.5 L 144.5 48 L 142.5 48 Q 138.1 49.5 139 46.5 L 134.5 48 L 130.5 47 L 128.5 47 L 127 47 L 127 42 Z M 129 44 L 130 46 L 132 45 L 129 44 Z " /><path fill="rgb(59,123,93)" stroke="rgb(59,123,93)" stroke-width="1" opacity="0.3254901960784314" d="M 14.5 12 L 21 12.5 L 14.5 13 L 14.5 12 Z " /><path fill="rgb(59,123,93)" stroke="rgb(59,123,93)" stroke-width="1" opacity="0.3254901960784314" d="M 11.5 13 L 13 13.5 L 10.5 15 L 11.5 13 Z " /><path fill="rgb(59,123,93)" stroke="rgb(59,123,93)" stroke-width="1" opacity="0.3254901960784314" d="M 53.5 14 L 57.5 19 L 53.5 14 Z " /><path fill="rgb(59,123,93)" stroke="rgb(59,123,93)" stroke-width="1" opacity="0.3254901960784314" d="M 8.5 15 L 7.5 17 L 8.5 15 Z " /><path fill="rgb(59,123,93)" stroke="rgb(59,123,93)" stroke-width="1" opacity="0.3254901960784314" d="M 28.5 15 L 29.5 17 L 28.5 15 Z " /><path fill="rgb(59,123,93)" stroke="rgb(59,123,93)" stroke-width="1" opacity="0.3254901960784314" d="M 33.5 16 L 32 18.5 Q 30.7 23.3 33 24.5 L 31 23.5 Q 29.8 17.3 33.5 16 Z " /><path fill="rgb(59,123,93)" stroke="rgb(59,123,93)" stroke-width="1" opacity="0.3254901960784314" d="M 27.5 24 L 30 24.5 L 27.5 25 L 27.5 24 Z " /><path fill="rgb(59,123,93)" stroke="rgb(59,123,93)" stroke-width="1" opacity="0.3254901960784314" d="M 23.5 26 L 19.5 31 L 23.5 26 Z " /><path fill="rgb(59,123,93)" stroke="rgb(59,123,93)" stroke-width="1" opacity="0.3254901960784314" d="M 2.5 27 L 3 31.5 L 2 31.5 L 2.5 27 Z " /><path fill="rgb(59,123,93)" stroke="rgb(59,123,93)" stroke-width="1" opacity="0.3254901960784314" d="M 28.5 29 L 32 30.5 L 30.5 30 Q 27.5 30.5 28.5 29 Z " /><path fill="rgb(59,123,93)" stroke="rgb(59,123,93)" stroke-width="1" opacity="0.3254901960784314" d="M 65.5 30 L 66 38.5 L 65 38.5 L 65.5 30 Z " /><path fill="rgb(59,123,93)" stroke="rgb(59,123,93)" stroke-width="1" opacity="0.3254901960784314" d="M 71.5 30 L 74 30.5 L 73.5 39 L 72.5 35 L 71 35.5 L 72 31.5 L 71.5 30 Z " /><path fill="rgb(59,123,93)" stroke="rgb(59,123,93)" stroke-width="1" opacity="0.3254901960784314" d="M 92.5 30 L 95 30.5 L 92 32.5 L 92.5 30 Z " /><path fill="rgb(59,123,93)" stroke="rgb(59,123,93)" stroke-width="1" opacity="0.3254901960784314" d="M 99.5 30 L 99 31.5 L 98.5 33 Q 97.2 30.7 96 33.5 L 95.5 35 L 95 33.5 L 99.5 30 Z " /><path fill="rgb(59,123,93)" stroke="rgb(59,123,93)" stroke-width="1" opacity="0.3254901960784314" d="M 105.5 30 L 106.5 32 L 105.5 30 Z " /><path fill="rgb(59,123,93)" stroke="rgb(59,123,93)" stroke-width="1" opacity="0.3254901960784314" d="M 114.5 30 Q 116.8 29.3 116 31.5 L 114.5 30 Z " /><path fill="rgb(59,123,93)" stroke="rgb(59,123,93)" stroke-width="1" opacity="0.3254901960784314" d="M 134.5 30 L 135.5 32 L 134.5 30 Z " /><path fill="rgb(59,123,93)" stroke="rgb(59,123,93)" stroke-width="1" opacity="0.3254901960784314" d="M 137.5 30 L 138 38.5 L 137 38.5 L 136 33.5 L 137.5 30 Z " /><path fill="rgb(59,123,93)" stroke="rgb(59,123,93)" stroke-width="1" opacity="0.3254901960784314" d="M 140.5 30 L 141.5 32 L 140.5 30 Z " /><path fill="rgb(59,123,93)" stroke="rgb(59,123,93)" stroke-width="1" opacity="0.3254901960784314" d="M 143.5 30 L 144 34.5 L 142 33.5 L 143.5 30 Z " /><path fill="rgb(59,123,93)" stroke="rgb(59,123,93)" stroke-width="1" opacity="0.3254901960784314" d="M 145.5 30 L 146 38.5 L 145 38.5 L 145.5 30 Z " /><path fill="rgb(59,123,93)" stroke="rgb(59,123,93)" stroke-width="1" opacity="0.3254901960784314" d="M 24.5 31 L 23.5 33 L 24.5 31 Z " /><path fill="rgb(59,123,93)" stroke="rgb(59,123,93)" stroke-width="1" opacity="0.3254901960784314" d="M 77.5 32 L 78 34 L 76 33.5 L 77.5 32 Z " /><path fill="rgb(59,123,93)" stroke="rgb(59,123,93)" stroke-width="1" opacity="0.3254901960784314" d="M 84.5 32 L 89 33 Q 90.8 37.5 85.5 36 L 84 36.5 L 88 34.5 Q 84.2 34.4 84.5 32 Z " /><path fill="rgb(59,123,93)" stroke="rgb(59,123,93)" stroke-width="1" opacity="0.3254901960784314" d="M 101.5 32 L 101 33.5 L 100.5 35 L 100 33.5 L 101.5 32 Z " /><path fill="rgb(59,123,93)" stroke="rgb(59,123,93)" stroke-width="1" opacity="0.3254901960784314" d="M 103.5 32 L 105 35.5 L 103 36.5 L 104 33.5 L 103.5 32 Z " /><path fill="rgb(59,123,93)" stroke="rgb(59,123,93)" stroke-width="1" opacity="0.3254901960784314" d="M 112.5 32 L 114.5 35 L 112 34 L 112.5 32 Z " /><path fill="rgb(59,123,93)" stroke="rgb(59,123,93)" stroke-width="1" opacity="0.3254901960784314" d="M 120.5 32 L 121 38.5 L 120 38.5 L 120.5 32 Z " /><path fill="rgb(59,123,93)" stroke="rgb(59,123,93)" stroke-width="1" opacity="0.3254901960784314" d="M 127.5 32 L 128 36.5 L 127 36.5 L 127.5 32 Z " /><path fill="rgb(59,123,93)" stroke="rgb(59,123,93)" stroke-width="1" opacity="0.3254901960784314" d="M 32.5 33 L 34.5 36 L 32.5 33 Z " /><path fill="rgb(59,123,93)" stroke="rgb(59,123,93)" stroke-width="1" opacity="0.3254901960784314" d="M 44.5 34 L 45 35.5 L 43 36.5 L 44.5 34 Z " /><path fill="rgb(59,123,93)" stroke="rgb(59,123,93)" stroke-width="1" opacity="0.3254901960784314" d="M 139 34 Q 141.7 32.9 141 35.5 L 141.5 37 L 140 36.5 L 139.5 39 L 139 34 Z " /><path fill="rgb(59,123,93)" stroke="rgb(59,123,93)" stroke-width="1" opacity="0.3254901960784314" d="M 17.5 35 L 18 40.5 L 17 40.5 L 17.5 35 Z " /><path fill="rgb(59,123,93)" stroke="rgb(59,123,93)" stroke-width="1" opacity="0.3254901960784314" d="M 110 35 L 113 36.5 Q 111.5 39.5 110 36.5 L 110 35 Z " /><path fill="rgb(59,123,93)" stroke="rgb(59,123,93)" stroke-width="1" opacity="0.3254901960784314" d="M 78.5 36 L 79 38.5 L 78 38.5 L 78.5 36 Z " /><path fill="rgb(59,123,93)" stroke="rgb(59,123,93)" stroke-width="1" opacity="0.3254901960784314" d="M 92 36 L 95 37.5 L 93 37.5 L 92.5 39 L 92 36 Z " /><path fill="rgb(59,123,93)" stroke="rgb(59,123,93)" stroke-width="1" opacity="0.3254901960784314" d="M 98.5 36 L 100 38.5 L 98.5 39 Q 95.5 37.5 98.5 36 Z " /><path fill="rgb(59,123,93)" stroke="rgb(59,123,93)" stroke-width="1" opacity="0.3254901960784314" d="M 107.5 36 L 109 38.5 L 107.5 38 L 105.5 39 L 107.5 36 Z " /><path fill="rgb(59,123,93)" stroke="rgb(59,123,93)" stroke-width="1" opacity="0.3254901960784314" d="M 35.5 37 L 38 42.5 L 37 42.5 L 35.5 37 Z " /><path fill="rgb(59,123,93)" stroke="rgb(59,123,93)" stroke-width="1" opacity="0.3254901960784314" d="M 135.5 37 L 134.5 39 L 135.5 37 Z " /><path fill="rgb(59,123,93)" stroke="rgb(59,123,93)" stroke-width="1" opacity="0.3254901960784314" d="M 42.5 38 L 41.5 40 L 42.5 38 Z " /><path fill="rgb(59,123,93)" stroke="rgb(59,123,93)" stroke-width="1" opacity="0.3254901960784314" d="M 6.5 43 L 7.5 45 L 6.5 43 Z " /><path fill="rgb(59,123,93)" stroke="rgb(59,123,93)" stroke-width="1" opacity="0.3254901960784314" d="M 24.5 43 L 23.5 45 L 24.5 43 Z " /><path fill="rgb(59,123,93)" stroke="rgb(59,123,93)" stroke-width="1" opacity="0.3254901960784314" d="M 56.5 44 L 55.5 46 L 56.5 44 Z " /><path fill="rgb(59,123,93)" stroke="rgb(59,123,93)" stroke-width="1" opacity="0.3254901960784314" d="M 21.5 45 L 21 46.5 L 23.5 50 L 20 46.5 L 21.5 45 Z " /><path fill="rgb(59,123,93)" stroke="rgb(59,123,93)" stroke-width="1" opacity="0.3254901960784314" d="M 28.5 45 L 31 46.5 L 29.5 47 L 28.5 45 Z " /><path fill="rgb(59,123,93)" stroke="rgb(59,123,93)" stroke-width="1" opacity="0.3254901960784314" d="M 8.5 46 L 10.5 49 L 8.5 46 Z " /><path fill="rgb(59,123,93)" stroke="rgb(59,123,93)" stroke-width="1" opacity="0.3254901960784314" d="M 53.5 48 L 43.5 59 L 53.5 48 Z " /><path fill="rgb(59,123,93)" stroke="rgb(59,123,93)" stroke-width="1" opacity="0.3254901960784314" d="M 12.5 51 L 16.5 56 L 12.5 51 Z " /><path fill="rgb(59,123,93)" stroke="rgb(59,123,93)" stroke-width="1" opacity="0.3254901960784314" d="M 28.5 51 L 31.5 52 L 33 51.5 L 32 52.5 L 32 64 L 34 64.5 L 29.5 65 L 29.5 64 L 31 63.5 L 31 52 Q 27.7 52.8 28.5 51 Z " /><path fill="rgb(59,123,93)" stroke="rgb(59,123,93)" stroke-width="1" opacity="0.3254901960784314" d="M 19.5 57 L 21.5 60 L 19.5 57 Z " /><path fill="rgb(59,123,93)" stroke="rgb(59,123,93)" stroke-width="1" opacity="0.3254901960784314" d="M 23.5 60 L 24.5 62 L 23.5 60 Z " /><path fill="rgb(59,123,93)" stroke="rgb(59,123,93)" stroke-width="1" opacity="0.3254901960784314" d="M 26.5 62 L 27.5 64 L 26.5 62 Z " /><path fill="rgb(51,121,97)" stroke="rgb(51,121,97)" stroke-width="1" opacity="0.7764705882352941" d="M 9.5 15 L 6.5 19 L 9.5 15 Z " /><path fill="rgb(51,121,97)" stroke="rgb(51,121,97)" stroke-width="1" opacity="0.7764705882352941" d="M 32.5 23 L 33.5 25 L 32.5 23 Z " /><path fill="rgb(51,121,97)" stroke="rgb(51,121,97)" stroke-width="1" opacity="0.7764705882352941" d="M 21.5 27 L 20.5 29 L 21.5 27 Z " /><path fill="rgb(51,121,97)" stroke="rgb(51,121,97)" stroke-width="1" opacity="0.7764705882352941" d="M 40.5 27 L 41 28.5 L 39 29.5 L 40.5 27 Z " /><path fill="rgb(51,121,97)" stroke="rgb(51,121,97)" stroke-width="1" opacity="0.7764705882352941" d="M 79.5 30 L 81 33.5 L 80 33.5 L 79.5 30 Z " /><path fill="rgb(51,121,97)" stroke="rgb(51,121,97)" stroke-width="1" opacity="0.7764705882352941" d="M 82.5 30 L 83 38.5 L 82 38.5 L 82.5 30 Z " /><path fill="rgb(51,121,97)" stroke="rgb(51,121,97)" stroke-width="1" opacity="0.7764705882352941" d="M 88.5 30 L 89 32 L 85 31.5 L 88.5 30 Z " /><path fill="rgb(51,121,97)" stroke="rgb(51,121,97)" stroke-width="1" opacity="0.7764705882352941" d="M 90.5 30 L 91 38.5 L 90 38.5 L 90.5 30 Z " /><path fill="rgb(51,121,97)" stroke="rgb(51,121,97)" stroke-width="1" opacity="0.7764705882352941" d="M 95.5 30 L 98 30.5 L 95.5 33 L 94.5 32 L 92 33.5 L 95.5 30 Z " /><path fill="rgb(51,121,97)" stroke="rgb(51,121,97)" stroke-width="1" opacity="0.7764705882352941" d="M 113.5 30 L 115 33 L 113 32.5 L 113.5 30 Z " /><path fill="rgb(51,121,97)" stroke="rgb(51,121,97)" stroke-width="1" opacity="0.7764705882352941" d="M 129.5 30 L 128.5 32 L 129.5 30 Z " /><path fill="rgb(51,121,97)" stroke="rgb(51,121,97)" stroke-width="1" opacity="0.7764705882352941" d="M 68.5 31 L 68 32.5 L 67.5 34 L 67 32.5 L 68.5 31 Z " /><path fill="rgb(51,121,97)" stroke="rgb(51,121,97)" stroke-width="1" opacity="0.7764705882352941" d="M 116.5 31 L 119 32.5 L 118.5 39 L 118 32 L 116.5 31 Z " /><path fill="rgb(51,121,97)" stroke="rgb(51,121,97)" stroke-width="1" opacity="0.7764705882352941" d="M 120.5 31 L 123 31.5 L 120.5 32 L 120.5 31 Z " /><path fill="rgb(51,121,97)" stroke="rgb(51,121,97)" stroke-width="1" opacity="0.7764705882352941" d="M 131.5 31 L 134 32.5 L 132.5 32 L 131.5 31 Z " /><path fill="rgb(51,121,97)" stroke="rgb(51,121,97)" stroke-width="1" opacity="0.7764705882352941" d="M 98.5 33 L 99 35.5 L 98 35.5 L 98.5 33 Z " /><path fill="rgb(51,121,97)" stroke="rgb(51,121,97)" stroke-width="1" opacity="0.7764705882352941" d="M 129.5 33 L 130 35.5 L 129 35.5 L 129.5 33 Z " /><path fill="rgb(51,121,97)" stroke="rgb(51,121,97)" stroke-width="1" opacity="0.7764705882352941" d="M 142.5 34 L 143.5 36 L 142.5 34 Z " /><path fill="rgb(51,121,97)" stroke="rgb(51,121,97)" stroke-width="1" opacity="0.7764705882352941" d="M 23.5 35 L 24.5 37 L 23.5 35 Z " /><path fill="rgb(51,121,97)" stroke="rgb(51,121,97)" stroke-width="1" opacity="0.7764705882352941" d="M 68.5 35 L 71 35.5 L 68 36 L 67.5 39 L 67 36.5 L 68.5 35 Z " /><path fill="rgb(51,121,97)" stroke="rgb(51,121,97)" stroke-width="1" opacity="0.7764705882352941" d="M 95.5 35 L 96.5 37 L 95.5 35 Z " /><path fill="rgb(51,121,97)" stroke="rgb(51,121,97)" stroke-width="1" opacity="0.7764705882352941" d="M 80.5 36 L 81 38.5 L 80 38.5 L 80.5 36 Z " /><path fill="rgb(51,121,97)" stroke="rgb(51,121,97)" stroke-width="1" opacity="0.7764705882352941" d="M 133.5 36 L 132.5 38 L 131 37.5 L 133.5 36 Z " /><path fill="rgb(51,121,97)" stroke="rgb(51,121,97)" stroke-width="1" opacity="0.7764705882352941" d="M 85.5 37 Q 89.9 35.5 89 38.5 L 87.5 38 Q 84.5 38.5 85.5 37 Z " /><path fill="rgb(51,121,97)" stroke="rgb(51,121,97)" stroke-width="1" opacity="0.7764705882352941" d="M 112.5 37 L 113.5 39 L 112.5 37 Z " /><path fill="rgb(51,121,97)" stroke="rgb(51,121,97)" stroke-width="1" opacity="0.7764705882352941" d="M 128.5 37 L 129.5 39 L 128.5 37 Z " /><path fill="rgb(51,121,97)" stroke="rgb(51,121,97)" stroke-width="1" opacity="0.7764705882352941" d="M 24.5 39 L 23.5 41 L 24.5 39 Z " /><path fill="rgb(51,121,97)" stroke="rgb(51,121,97)" stroke-width="1" opacity="0.7764705882352941" d="M 17.5 41 L 18.5 43 L 17.5 41 Z " /><path fill="rgb(51,121,97)" stroke="rgb(51,121,97)" stroke-width="1" opacity="0.7764705882352941" d="M 27.5 42 L 29 44.5 L 28 44.5 L 27.5 42 Z " /><path fill="rgb(51,121,97)" stroke="rgb(51,121,97)" stroke-width="1" opacity="0.7764705882352941" d="M 11.5 49 L 18.5 57 L 11.5 49 Z " /><path fill="rgb(51,121,97)" stroke="rgb(51,121,97)" stroke-width="1" opacity="0.7764705882352941" d="M 42.5 58 L 41.5 60 L 42.5 58 Z " /><path fill="rgb(44,120,100)" stroke="rgb(44,120,100)" stroke-width="1" opacity="0.996078431372549" d="M 14.5 13 Q 26.8 11.7 31 18.5 Q 33.7 26.3 26.5 24 L 20 28.5 Q 15.8 32.3 17 41.5 Q 18.3 44.3 19.5 42 L 25 39.5 Q 25.8 35.3 23 34.5 L 24 32 L 27.5 30 L 31 30 L 31 32.5 L 37 40.5 L 37 44 L 29 46 L 27.5 42 L 20 46.5 L 21 49 L 27.5 52 L 31 52 L 31 63.5 L 29.5 64 Q 17.1 57.4 9 46.5 L 3 33.5 L 3 26.5 Q 5.2 18.2 11.5 14 L 14.5 13 Z " /><path fill="rgb(44,120,100)" stroke="rgb(44,120,100)" stroke-width="1" opacity="0.996078431372549" d="M 66 30 Q 70.6 28.8 72 31.5 Q 73.8 36.8 68.5 35 L 66.5 39 L 66 30 Z M 69 31 L 67 33 Q 66 36 70 34 L 69 31 Z " /><path fill="rgb(44,120,100)" stroke="rgb(44,120,100)" stroke-width="1" opacity="0.996078431372549" d="M 74 30 Q 78.6 28.8 80 31.5 L 79.5 39 L 77.5 35 L 76 35 L 76 39 L 74 39 L 74 30 Z M 77 31 L 76 34 Q 80 35 79 32 L 77 31 Z " /><path fill="rgb(44,120,100)" stroke="rgb(44,120,100)" stroke-width="1" opacity="0.996078431372549" d="M 83 30 L 88 30.5 L 84 32.5 Q 83.1 35.5 87.5 34 L 87.5 35 Q 83.1 33.5 84 36.5 L 88 38.5 L 83 39 L 83 30 Z " /><path fill="rgb(44,120,100)" stroke="rgb(44,120,100)" stroke-width="1" opacity="0.996078431372549" d="M 91.5 30 L 92.5 34 L 97 30.5 Q 94.3 31.3 95 35.5 L 97.5 39 L 94 36.5 Q 94.7 33.9 92 35 L 91.5 39 L 91.5 30 Z " /><path fill="rgb(44,120,100)" stroke="rgb(44,120,100)" stroke-width="1" opacity="0.996078431372549" d="M 101.5 30 L 106 31 L 107 35.5 L 106 38 L 101.5 39 L 99 38 L 99 31.5 L 100.5 31 L 101.5 30 Z M 103 31 Q 99 32 100 36 Q 102 40 104 37 L 105 37 L 105 32 L 103 31 Z " /><path fill="rgb(44,120,100)" stroke="rgb(44,120,100)" stroke-width="1" opacity="0.996078431372549" d="M 109.5 30 Q 113.3 29.3 114 31.5 L 112.5 32 Q 111.2 29.8 110 32.5 L 115 35.5 Q 116.1 38.8 113.5 38 L 109.5 39 L 108.5 37 L 113 38 L 111.5 35 L 108 34 L 109.5 30 Z " /><path fill="rgb(44,120,100)" stroke="rgb(44,120,100)" stroke-width="1" opacity="0.996078431372549" d="M 116.5 30 L 123 30.5 L 120 31 L 119.5 39 L 119 32.5 L 117.5 31 L 116.5 30 Z " /><path fill="rgb(44,120,100)" stroke="rgb(44,120,100)" stroke-width="1" opacity="0.996078431372549" d="M 124 30 L 126 30.5 L 126 39 L 124 38.5 L 124 30 Z " /><path fill="rgb(44,120,100)" stroke="rgb(44,120,100)" stroke-width="1" opacity="0.996078431372549" d="M 130.5 30 Q 135.3 29.3 136 32.5 Q 137 38 133.5 39 Q 128.8 39.8 128 36.5 Q 127 31 130.5 30 Z M 132 31 Q 129 32 129 36 L 133 38 Q 135 37 134 33 L 132 31 Z " /><path fill="rgb(44,120,100)" stroke="rgb(44,120,100)" stroke-width="1" opacity="0.996078431372549" d="M 138 30 L 141 31.5 L 143.5 36 L 144.5 30 L 145 39 L 142 37.5 L 139.5 33 L 138.5 39 L 138 30 Z " /></svg>