<?xml version="1.0" encoding="UTF-8"?>
<svg version="1.1" xmlns="http://www.w3.org/2000/svg" width="1000" height="1000">
<path d="M0 0 C0.95148926 0.63518555 1.90297852 1.27037109 2.88330078 1.92480469 C3.76099121 2.52711914 4.63868164 3.12943359 5.54296875 3.75 C6.32051514 4.28109375 7.09806152 4.8121875 7.89916992 5.359375 C10.74958732 7.80352517 11.70316313 9.91409264 12.07992554 13.65600586 C12.08754913 14.66542236 12.09517273 15.67483887 12.10302734 16.71484375 C12.11578705 17.86283447 12.12854675 19.0108252 12.14169312 20.19360352 C12.14503159 22.04683228 12.14503159 22.04683228 12.1484375 23.9375 C12.1550943 25.20972412 12.1617511 26.48194824 12.16860962 27.79272461 C12.17873528 30.48272707 12.18429184 33.17232528 12.18310547 35.86230469 C12.18290199 39.3058558 12.21023922 42.74858433 12.24464989 46.19194031 C12.27225168 49.48209615 12.27106737 52.77224405 12.2734375 56.0625 C12.28780853 57.29798584 12.30217957 58.53347168 12.31698608 59.80639648 C12.31083282 60.95438721 12.30467957 62.10237793 12.29833984 63.28515625 C12.30118988 64.29457275 12.30403992 65.30398926 12.30697632 66.34399414 C11.67831278 69.72076666 10.47318494 70.89547552 7.8125 73 C5.27319336 73.65014648 5.27319336 73.65014648 2.40234375 73.87109375 C0.807854 74.01575073 0.807854 74.01575073 -0.81884766 74.16333008 C-1.95112793 74.25380615 -3.0834082 74.34428223 -4.25 74.4375 C-15.65217164 75.55565353 -26.29033069 77.47547014 -37.1875 81 C-37.88520508 81.22558594 -38.58291016 81.45117188 -39.30175781 81.68359375 C-60.55008824 88.74310475 -78.15170778 100.5412078 -94.1875 116 C-94.83074219 116.59167969 -95.47398437 117.18335938 -96.13671875 117.79296875 C-117.92967893 138.36674234 -131.96059895 168.89887522 -137.1875 198 C-137.37183594 199.00160156 -137.55617188 200.00320313 -137.74609375 201.03515625 C-140.29281781 223.91059802 -139.03199395 249.54739765 -130.1875 271 C-126.50609335 270.43098548 -123.90505824 269.45335727 -120.74609375 267.49609375 C-119.91400391 267.00302734 -119.08191406 266.50996094 -118.22460938 266.00195312 C-116.50981924 264.96998701 -114.80376168 263.92335002 -113.10742188 262.86132812 C-108.26521292 260.03021285 -104.99388982 258.73260063 -99.34375 259.0859375 C-91.72057092 259.45518619 -86.59654083 256.07040473 -80.25 252.1875 C-79.15365234 251.54490234 -78.05730469 250.90230469 -76.92773438 250.24023438 C-73.99871418 248.51780629 -71.0903228 246.76609383 -68.1875 245 C-66.85477051 244.29725952 -66.85477051 244.29725952 -65.49511719 243.58032227 C-62.78849331 241.72674881 -62.01134952 240.35113601 -60.73046875 237.359375 C-60.34052734 236.45316406 -59.95058594 235.54695313 -59.54882812 234.61328125 C-58.9677832 233.19595703 -58.9677832 233.19595703 -58.375 231.75 C-57.76495117 230.35587891 -57.76495117 230.35587891 -57.14257812 228.93359375 C-54.94537784 223.7120119 -53.66292772 219.66851245 -54.1875 214 C-54.88875 213.67128906 -55.59 213.34257812 -56.3125 213.00390625 C-66.3967969 207.94805631 -72.99618099 201.41157381 -77.33984375 190.8984375 C-79.21208113 184.49659354 -79.35401546 177.88146865 -76.6875 171.6875 C-71.17851028 162.81033874 -61.6844191 158.10880658 -52.8125 153.1875 C-51.55967817 152.48480868 -50.3072399 151.7814331 -49.05517578 151.07739258 C-46.57786364 149.68607908 -44.09763471 148.30018081 -41.61523438 146.91796875 C-38.63122115 145.24828158 -35.66335693 143.55509918 -32.703125 141.84375 C-13.17824602 130.61004024 -13.17824602 130.61004024 -3.40234375 132.328125 C6.99407215 135.48188785 11.83911281 144.01005064 16.8125 153 C18.3557421 156.30001455 19.07134672 158.79881711 19 162.4375 C18.98066406 163.59958984 18.98066406 163.59958984 18.9609375 164.78515625 C18.8125 167 18.8125 167 18.125 170.375 C17.56532968 172.94019222 17.56532968 172.94019222 18.75 174.75 C21.28305941 176.28518752 23.77205835 176.73499128 26.6796875 177.1796875 C34.05807389 180.01752842 37.24188657 188.71127337 40.75 195.1875 C41.94513481 197.36930082 43.1417333 199.55030055 44.33984375 201.73046875 C44.91645752 202.7862915 45.49307129 203.84211426 46.0871582 204.92993164 C48.16983843 208.635847 50.40472816 212.23124248 52.70556641 215.80517578 C54.57929374 219.52039607 54.34112367 222.96459117 53.8125 227 C53.73128906 227.69867188 53.65007812 228.39734375 53.56640625 229.1171875 C53.3532586 230.75022643 53.08884714 232.37646056 52.8125 234 C55.32050251 236.1945022 57.62936619 237.34265422 60.75 238.375 C67.75019262 240.92877397 70.63011551 245.89576683 73.67578125 252.390625 C76.77046215 259.49456604 79.16612958 266.14388813 77.8125 274 C73.90505917 283.34248198 65.56852633 287.47690178 57.1875 292.3125 C56.14730713 292.91481445 55.10711426 293.51712891 54.03540039 294.13769531 C50.6327336 296.10054889 47.22423241 298.05296709 43.8125 300 C43.21334778 300.34230652 42.61419556 300.68461304 41.99688721 301.03729248 C38.34546587 303.12158228 34.68777608 305.19426274 31.02203369 307.25326538 C29.28298488 308.23144664 27.54746023 309.21588483 25.81201172 310.20043945 C16.90526283 315.16979845 10.10181661 318.32064189 -0.1875 316 C-7.91307251 312.13721374 -12.24731212 305.22884544 -16.5625 298 C-16.92069824 297.41879395 -17.27889648 296.83758789 -17.64794922 296.23876953 C-20.08127664 292.00983885 -20.62587523 288.8339755 -20.1875 284 C-19.8575 283.34 -19.5275 282.68 -19.1875 282 C-18.76629551 278.00636497 -18.76629551 278.00636497 -20.2265625 274.4140625 C-23.14909384 272.30657974 -26.33396176 271.90082948 -29.8125 271.3125 C-30.48667969 271.18294922 -31.16085937 271.05339844 -31.85546875 270.91992188 C-40.56256618 269.35859226 -47.38474734 269.34723143 -55.375 273.375 C-56.10114502 273.73150635 -56.82729004 274.0880127 -57.57543945 274.45532227 C-66.31581783 278.88799042 -75.78984254 283.72820236 -80.83984375 292.375 C-84.58827234 298.30104611 -89.9736502 300.89434847 -96.0625 304.0625 C-97.13242187 304.64193359 -98.20234375 305.22136719 -99.3046875 305.81835938 C-101.92235659 307.23236813 -104.54908954 308.6252022 -107.1875 310 C-104.80454274 323.9933193 -86.77176277 336.42831799 -75.8125 344.25 C-49.51094318 362.50568481 -21.63778459 368.85170718 9.8125 372 C11.44270424 375.5904755 12.06321418 378.38536307 12.06646729 382.31983948 C12.07210693 383.37270142 12.07774658 384.42556335 12.08355713 385.5103302 C12.07748444 387.22720284 12.07748444 387.22720284 12.07128906 388.97875977 C12.07654602 390.79901169 12.07654602 390.79901169 12.08190918 392.65603638 C12.08919518 395.97623886 12.08749913 399.29619157 12.08115101 402.61637998 C12.0760798 406.09386097 12.08078547 409.57133145 12.08392334 413.04881287 C12.08755923 418.88697216 12.08277328 424.72508082 12.07324219 430.56323242 C12.06235324 437.31101268 12.06588788 444.05867213 12.076895 450.80644947 C12.08597254 456.60360293 12.08725103 462.40072003 12.08201766 468.1978783 C12.07890118 471.65874426 12.07847987 475.11955343 12.08509064 478.58041573 C12.09194352 482.43720316 12.0824437 486.29385533 12.07128906 490.15063477 C12.07533752 491.29724075 12.07938599 492.44384674 12.08355713 493.62519836 C12.07791748 494.67524048 12.07227783 495.72528259 12.06646729 496.80714417 C12.06533621 498.17456174 12.06533621 498.17456174 12.06418228 499.56960392 C11.79761544 502.14373426 11.11438305 503.7835835 9.8125 506 C3.59889162 505.51082145 -1.41028735 502.71034557 -6.875 499.9375 C-7.91865723 499.41091797 -8.96231445 498.88433594 -10.03759766 498.34179688 C-29.16291593 488.53394135 -47.53612812 477.25104688 -65.1875 465 C-65.88987793 464.51611816 -66.59225586 464.03223633 -67.31591797 463.53369141 C-78.20026198 456.02272736 -88.74832943 448.11539133 -99.1875 440 C-99.81285645 439.51644043 -100.43821289 439.03288086 -101.08251953 438.53466797 C-109.076637 432.35166768 -116.88037845 425.98255332 -124.54882812 419.40039062 C-126.19682146 417.99203398 -127.85489677 416.59643142 -129.515625 415.203125 C-143.24795546 403.63770571 -156.10256269 391.16892721 -168.8125 378.5 C-169.73675781 377.58041504 -170.66101563 376.66083008 -171.61328125 375.71337891 C-176.13340308 371.18253416 -180.52205803 366.60009417 -184.68994141 361.74267578 C-186.75671857 359.33761295 -188.91086784 357.0166237 -191.0625 354.6875 C-195.98327302 349.2850248 -200.6145049 343.69762419 -205.1875 338 C-206.11139449 336.86801214 -207.0359029 335.73652513 -207.9609375 334.60546875 C-236.26126095 299.84268155 -259.81729027 261.18632033 -275.1875 219 C-275.47463867 218.22237305 -275.76177734 217.44474609 -276.05761719 216.64355469 C-295.58191175 163.25202782 -297.08199026 104.43883293 -273.35961914 52.19433594 C-265.04209653 34.56459328 -254.94334257 17.78051008 -242.1875 3 C-241.68782715 2.41669922 -241.1881543 1.83339844 -240.67333984 1.23242188 C-218.5176616 -24.35252205 -188.58043321 -40.69198926 -155.1875 -46 C-154.37925781 -46.13148438 -153.57101562 -46.26296875 -152.73828125 -46.3984375 C-98.64786638 -53.3839361 -43.81556556 -29.43914162 0 0 Z " fill="#2C7865" transform="translate(487.1875,195)"/>
<path d="M0 0 C1.60891223 1.47400344 3.21351761 2.95273064 4.8125 4.4375 C5.40546875 4.97632813 5.9984375 5.51515625 6.609375 6.0703125 C21.34766174 20.03659375 32.40177417 38.6173822 41.8125 56.4375 C42.40675781 57.55769531 43.00101563 58.67789063 43.61328125 59.83203125 C52.86509252 78.44199645 58.91611368 98.88792303 61.8125 119.4375 C61.91199951 120.0876709 62.01149902 120.7378418 62.11401367 121.40771484 C68.80803629 171.23233797 54.62894897 222.076365 32.8125 266.4375 C32.37711914 267.32743652 31.94173828 268.21737305 31.49316406 269.13427734 C18.29835429 295.84656906 1.47812215 320.28803904 -17.1875 343.4375 C-17.94546875 344.37851562 -18.7034375 345.31953125 -19.484375 346.2890625 C-21.70281674 349.0188472 -23.93936721 351.73211986 -26.1875 354.4375 C-26.60999023 354.94635742 -27.03248047 355.45521484 -27.46777344 355.97949219 C-33.29805807 362.98520308 -39.2768399 369.81422894 -45.484375 376.48828125 C-46.88248614 377.99451367 -48.2506868 379.51179122 -49.58227539 381.07739258 C-55.12478276 387.59345492 -61.18415153 393.58503421 -67.23901367 399.61938477 C-69.12078274 401.49579475 -70.99714738 403.37748969 -72.87304688 405.25976562 C-78.80961296 411.19962617 -84.7705524 417.01218168 -91.1875 422.4375 C-92.79518373 423.89195517 -94.39989715 425.34970895 -96 426.8125 C-100.26495308 430.65678245 -104.6361085 434.33276905 -109.1015625 437.94140625 C-111.33689817 439.74948156 -113.55938205 441.56862763 -115.7734375 443.40234375 C-141.52176259 464.65337317 -169.33696253 483.64876916 -198.1875 500.4375 C-198.98800781 500.90542969 -199.78851562 501.37335937 -200.61328125 501.85546875 C-209.70075031 507.155357 -218.82311704 512.38923022 -228.1875 517.1875 C-228.82743896 517.52273682 -229.46737793 517.85797363 -230.12670898 518.20336914 C-233.58989112 519.93612752 -236.30220809 521.02029379 -240.1875 520.4375 C-242.78237949 517.84262051 -242.44247373 516.79417764 -242.45492554 513.18144226 C-242.46345551 512.06683624 -242.47198547 510.95223022 -242.48077393 509.80384827 C-242.47986755 508.57524582 -242.47896118 507.34664337 -242.47802734 506.08081055 C-242.48474457 504.79132507 -242.49146179 503.5018396 -242.49838257 502.17327881 C-242.51608462 498.62976723 -242.52073978 495.08635218 -242.52201414 491.54280066 C-242.52391136 488.58562058 -242.53126708 485.62846306 -242.53835833 482.67129165 C-242.55465689 475.69336578 -242.55952606 468.71549154 -242.55810547 461.73754883 C-242.55690455 454.53931344 -242.57799277 447.34137815 -242.6095928 440.1432187 C-242.63574972 433.96479306 -242.64647297 427.78646543 -242.64519465 421.60798484 C-242.64468471 417.91724188 -242.65038459 414.22676533 -242.67155075 410.5360775 C-242.69452188 406.41796777 -242.68541589 402.30052909 -242.67333984 398.18237305 C-242.68457886 396.95984329 -242.69581787 395.73731354 -242.70739746 394.47773743 C-242.64569718 386.21767761 -242.64569718 386.21767761 -240.31187439 382.24385071 C-237.94875024 380.23449162 -235.67421314 378.77161129 -232.91796875 377.34375 C-231.3561084 376.52124756 -231.3561084 376.52124756 -229.76269531 375.68212891 C-228.64475586 375.10640137 -227.52681641 374.53067383 -226.375 373.9375 C-223.99755733 372.68699276 -221.62124413 371.43452412 -219.24609375 370.1796875 C-218.64668976 369.8643808 -218.04728577 369.5490741 -217.42971802 369.22421265 C-211.86301926 366.28864552 -206.39613573 363.19295821 -200.9375 360.0625 C-190.82562919 354.29126969 -180.57990867 348.79446211 -170.29296875 343.34423828 C-161.36663732 338.61344195 -152.48602282 333.80653306 -143.65991211 328.89038086 C-142.82854736 328.43155518 -141.99718262 327.97272949 -141.140625 327.5 C-140.42036133 327.09910156 -139.70009766 326.69820313 -138.95800781 326.28515625 C-137.1875 325.4375 -137.1875 325.4375 -135.1875 325.4375 C-135.1875 324.7775 -135.1875 324.1175 -135.1875 323.4375 C-136.2225769 323.27773682 -136.2225769 323.27773682 -137.27856445 323.11474609 C-142.61159756 321.87313184 -147.47239055 319.27844087 -152.41772461 316.97265625 C-154.37481318 316.06258687 -156.33835977 315.16765125 -158.30273438 314.2734375 C-159.54989896 313.69621867 -160.79665845 313.11812358 -162.04296875 312.5390625 C-163.17371826 312.01650879 -164.30446777 311.49395508 -165.46948242 310.95556641 C-168.1875 309.4375 -168.1875 309.4375 -170.1875 306.4375 C-170.95868976 300.98523211 -168.92294097 297.64853099 -165.98828125 293.265625 C-165.54059891 292.57430481 -165.09291656 291.88298462 -164.63166809 291.17071533 C-163.16504737 288.91622988 -161.67799442 286.67626101 -160.1875 284.4375 C-159.1929324 282.92921065 -158.19863091 281.42074579 -157.20458984 279.91210938 C-154.52526271 275.86018729 -151.82525672 271.82241843 -149.1192627 267.78826904 C-146.07252558 263.24545586 -143.03421223 258.69701746 -139.99609375 254.1484375 C-139.36534943 253.20428986 -138.7346051 252.26014221 -138.08474731 251.28738403 C-130.65682615 240.1591374 -123.29489134 228.98745233 -115.9375 217.8125 C-115.29259613 216.83309448 -114.64769226 215.85368896 -113.98324585 214.84460449 C-110.38311331 209.37658913 -106.78438721 203.90765069 -103.1875 198.4375 C-113.67232965 192.96680584 -124.47456468 188.27951866 -135.3125 183.5625 C-137.08086173 182.79066823 -138.84909161 182.01853431 -140.6171875 181.24609375 C-141.48857361 180.86555847 -142.35995972 180.48502319 -143.25775146 180.09295654 C-144.99965433 179.33141827 -146.74107403 178.56877381 -148.48199463 177.80499268 C-152.77738383 175.92119614 -157.07879556 174.05545993 -161.39746094 172.22558594 C-163.03323075 171.52285076 -164.66897412 170.82005403 -166.3046875 170.1171875 C-167.05751007 169.80435822 -167.81033264 169.49152893 -168.58596802 169.16921997 C-172.40026719 167.51680861 -175.24431061 166.22643549 -177.1875 162.4375 C-177.07289883 157.59878383 -175.65556526 155.31625634 -172.3125 151.9375 C-168.4705406 147.88107716 -164.92750037 143.71685266 -161.5 139.3125 C-161.03440674 138.7148584 -160.56881348 138.1172168 -160.08911133 137.50146484 C-156.74004385 133.18282055 -153.43839834 128.83060587 -150.1875 124.4375 C-150.73254684 124.26389954 -151.27759369 124.09029907 -151.8391571 123.91143799 C-157.41395484 122.099652 -162.81193783 120.02160342 -168.20703125 117.734375 C-169.05206207 117.37951523 -169.8970929 117.02465546 -170.76773071 116.65904236 C-173.51327168 115.50527423 -176.25678357 114.34678316 -179 113.1875 C-182.85104729 111.56257804 -186.70268586 109.93906448 -190.5546875 108.31640625 C-191.52464157 107.90747635 -192.49459564 107.49854645 -193.49394226 107.07722473 C-199.93777268 104.36636546 -206.40242892 101.7119572 -212.8828125 99.08984375 C-215.34662253 98.08684098 -217.81001475 97.08281902 -220.27328491 96.07849121 C-221.83148622 95.44672622 -223.39171933 94.81994784 -224.95401001 94.19836426 C-227.11928232 93.33638005 -229.27682829 92.45722892 -231.43359375 91.57421875 C-232.64716553 91.08655029 -233.8607373 90.59888184 -235.11108398 90.09643555 C-238.74772789 88.13540108 -240.24386453 87.11098858 -242.1875 83.4375 C-242.82037764 79.37382573 -242.86431204 75.34151152 -242.90234375 71.234375 C-242.92599503 70.04201233 -242.9496463 68.84964966 -242.97401428 67.62115479 C-243.01925402 65.09963954 -243.05477914 62.57793395 -243.08129883 60.05615234 C-243.1246908 56.21487164 -243.20551131 52.37570445 -243.29101562 48.53515625 C-243.33037542 46.08076422 -243.36755545 43.62633608 -243.40234375 41.171875 C-243.42715317 40.03095398 -243.45196259 38.89003296 -243.4775238 37.71453857 C-243.53253754 29.58368151 -242.6189271 23.04302162 -238.01953125 16.22265625 C-234.57881967 12.83889438 -230.97988498 10.38335038 -226.875 7.875 C-226.05032227 7.36469238 -225.22564453 6.85438477 -224.37597656 6.32861328 C-154.88689146 -36.105401 -66.94268719 -59.40409629 0 0 Z " fill="#FE9700" transform="translate(751.1875,182.5625)"/>
<path d="M0 0 C1.60891223 1.47400344 3.21351761 2.95273064 4.8125 4.4375 C5.40546875 4.97632813 5.9984375 5.51515625 6.609375 6.0703125 C21.34766174 20.03659375 32.40177417 38.6173822 41.8125 56.4375 C42.40675781 57.55769531 43.00101563 58.67789063 43.61328125 59.83203125 C52.86509252 78.44199645 58.91611368 98.88792303 61.8125 119.4375 C61.91199951 120.0876709 62.01149902 120.7378418 62.11401367 121.40771484 C68.80803629 171.23233797 54.62894897 222.076365 32.8125 266.4375 C32.37711914 267.32743652 31.94173828 268.21737305 31.49316406 269.13427734 C18.29835429 295.84656906 1.47812215 320.28803904 -17.1875 343.4375 C-17.94546875 344.37851562 -18.7034375 345.31953125 -19.484375 346.2890625 C-21.70281674 349.0188472 -23.93936721 351.73211986 -26.1875 354.4375 C-26.60999023 354.94635742 -27.03248047 355.45521484 -27.46777344 355.97949219 C-33.29805807 362.98520308 -39.2768399 369.81422894 -45.484375 376.48828125 C-46.88248614 377.99451367 -48.2506868 379.51179122 -49.58227539 381.07739258 C-55.12478276 387.59345492 -61.18415153 393.58503421 -67.23901367 399.61938477 C-69.12078274 401.49579475 -70.99714738 403.37748969 -72.87304688 405.25976562 C-78.80961296 411.19962617 -84.7705524 417.01218168 -91.1875 422.4375 C-92.79518373 423.89195517 -94.39989715 425.34970895 -96 426.8125 C-100.26495308 430.65678245 -104.6361085 434.33276905 -109.1015625 437.94140625 C-111.33689817 439.74948156 -113.55938205 441.56862763 -115.7734375 443.40234375 C-141.52176259 464.65337317 -169.33696253 483.64876916 -198.1875 500.4375 C-198.98800781 500.90542969 -199.78851562 501.37335937 -200.61328125 501.85546875 C-209.70075031 507.155357 -218.82311704 512.38923022 -228.1875 517.1875 C-228.82743896 517.52273682 -229.46737793 517.85797363 -230.12670898 518.20336914 C-233.58989112 519.93612752 -236.30220809 521.02029379 -240.1875 520.4375 C-242.78237949 517.84262051 -242.44247373 516.79417764 -242.45492554 513.18144226 C-242.46345551 512.06683624 -242.47198547 510.95223022 -242.48077393 509.80384827 C-242.47986755 508.57524582 -242.47896118 507.34664337 -242.47802734 506.08081055 C-242.48474457 504.79132507 -242.49146179 503.5018396 -242.49838257 502.17327881 C-242.51608462 498.62976723 -242.52073978 495.08635218 -242.52201414 491.54280066 C-242.52391136 488.58562058 -242.53126708 485.62846306 -242.53835833 482.67129165 C-242.55465689 475.69336578 -242.55952606 468.71549154 -242.55810547 461.73754883 C-242.55690455 454.53931344 -242.57799277 447.34137815 -242.6095928 440.1432187 C-242.63574972 433.96479306 -242.64647297 427.78646543 -242.64519465 421.60798484 C-242.64468471 417.91724188 -242.65038459 414.22676533 -242.67155075 410.5360775 C-242.69452188 406.41796777 -242.68541589 402.30052909 -242.67333984 398.18237305 C-242.68457886 396.95984329 -242.69581787 395.73731354 -242.70739746 394.47773743 C-242.64569718 386.21767761 -242.64569718 386.21767761 -240.31187439 382.24385071 C-237.94875024 380.23449162 -235.67421314 378.77161129 -232.91796875 377.34375 C-231.3561084 376.52124756 -231.3561084 376.52124756 -229.76269531 375.68212891 C-228.64475586 375.10640137 -227.52681641 374.53067383 -226.375 373.9375 C-223.99755733 372.68699276 -221.62124413 371.43452412 -219.24609375 370.1796875 C-218.64668976 369.8643808 -218.04728577 369.5490741 -217.42971802 369.22421265 C-211.86301926 366.28864552 -206.39613573 363.19295821 -200.9375 360.0625 C-190.82562919 354.29126969 -180.57990867 348.79446211 -170.29296875 343.34423828 C-161.36663732 338.61344195 -152.48602282 333.80653306 -143.65991211 328.89038086 C-142.82854736 328.43155518 -141.99718262 327.97272949 -141.140625 327.5 C-140.42036133 327.09910156 -139.70009766 326.69820313 -138.95800781 326.28515625 C-137.1875 325.4375 -137.1875 325.4375 -135.1875 325.4375 C-135.1875 324.7775 -135.1875 324.1175 -135.1875 323.4375 C-136.2225769 323.27773682 -136.2225769 323.27773682 -137.27856445 323.11474609 C-142.61159756 321.87313184 -147.47239055 319.27844087 -152.41772461 316.97265625 C-154.37481318 316.06258687 -156.33835977 315.16765125 -158.30273438 314.2734375 C-159.54989896 313.69621867 -160.79665845 313.11812358 -162.04296875 312.5390625 C-163.17371826 312.01650879 -164.30446777 311.49395508 -165.46948242 310.95556641 C-168.1875 309.4375 -168.1875 309.4375 -170.1875 306.4375 C-170.95868976 300.98523211 -168.92294097 297.64853099 -165.98828125 293.265625 C-165.54059891 292.57430481 -165.09291656 291.88298462 -164.63166809 291.17071533 C-163.16504737 288.91622988 -161.67799442 286.67626101 -160.1875 284.4375 C-159.1929324 282.92921065 -158.19863091 281.42074579 -157.20458984 279.91210938 C-154.52526271 275.86018729 -151.82525672 271.82241843 -149.1192627 267.78826904 C-146.07252558 263.24545586 -143.03421223 258.69701746 -139.99609375 254.1484375 C-139.36534943 253.20428986 -138.7346051 252.26014221 -138.08474731 251.28738403 C-130.65682615 240.1591374 -123.29489134 228.98745233 -115.9375 217.8125 C-115.29259613 216.83309448 -114.64769226 215.85368896 -113.98324585 214.84460449 C-110.38311331 209.37658913 -106.78438721 203.90765069 -103.1875 198.4375 C-113.67232965 192.96680584 -124.47456468 188.27951866 -135.3125 183.5625 C-137.08086173 182.79066823 -138.84909161 182.01853431 -140.6171875 181.24609375 C-141.48857361 180.86555847 -142.35995972 180.48502319 -143.25775146 180.09295654 C-144.99965433 179.33141827 -146.74107403 178.56877381 -148.48199463 177.80499268 C-152.77738383 175.92119614 -157.07879556 174.05545993 -161.39746094 172.22558594 C-163.03323075 171.52285076 -164.66897412 170.82005403 -166.3046875 170.1171875 C-167.05751007 169.80435822 -167.81033264 169.49152893 -168.58596802 169.16921997 C-172.40026719 167.51680861 -175.24431061 166.22643549 -177.1875 162.4375 C-177.07289883 157.59878383 -175.65556526 155.31625634 -172.3125 151.9375 C-168.4705406 147.88107716 -164.92750037 143.71685266 -161.5 139.3125 C-161.03440674 138.7148584 -160.56881348 138.1172168 -160.08911133 137.50146484 C-156.74004385 133.18282055 -153.43839834 128.83060587 -150.1875 124.4375 C-150.73254684 124.26389954 -151.27759369 124.09029907 -151.8391571 123.91143799 C-157.41395484 122.099652 -162.81193783 120.02160342 -168.20703125 117.734375 C-169.05206207 117.37951523 -169.8970929 117.02465546 -170.76773071 116.65904236 C-173.51327168 115.50527423 -176.25678357 114.34678316 -179 113.1875 C-182.85104729 111.56257804 -186.70268586 109.93906448 -190.5546875 108.31640625 C-191.52464157 107.90747635 -192.49459564 107.49854645 -193.49394226 107.07722473 C-199.93777268 104.36636546 -206.40242892 101.7119572 -212.8828125 99.08984375 C-215.34662253 98.08684098 -217.81001475 97.08281902 -220.27328491 96.07849121 C-221.83148622 95.44672622 -223.39171933 94.81994784 -224.95401001 94.19836426 C-227.11928232 93.33638005 -229.27682829 92.45722892 -231.43359375 91.57421875 C-232.64716553 91.08655029 -233.8607373 90.59888184 -235.11108398 90.09643555 C-238.74772789 88.13540108 -240.24386453 87.11098858 -242.1875 83.4375 C-242.82037764 79.37382573 -242.86431204 75.34151152 -242.90234375 71.234375 C-242.92599503 70.04201233 -242.9496463 68.84964966 -242.97401428 67.62115479 C-243.01925402 65.09963954 -243.05477914 62.57793395 -243.08129883 60.05615234 C-243.1246908 56.21487164 -243.20551131 52.37570445 -243.29101562 48.53515625 C-243.33037542 46.08076422 -243.36755545 43.62633608 -243.40234375 41.171875 C-243.42715317 40.03095398 -243.45196259 38.89003296 -243.4775238 37.71453857 C-243.53253754 29.58368151 -242.6189271 23.04302162 -238.01953125 16.22265625 C-234.57881967 12.83889438 -230.97988498 10.38335038 -226.875 7.875 C-226.05032227 7.36469238 -225.22564453 6.85438477 -224.37597656 6.32861328 C-154.88689146 -36.105401 -66.94268719 -59.40409629 0 0 Z M-212.375 4.625 C-213.24546463 5.1380368 -213.24546463 5.1380368 -214.1335144 5.66143799 C-228.02314438 12.8416788 -228.02314438 12.8416788 -237.77409363 24.21472168 C-238.25573041 26.80435711 -238.33737352 29.24209491 -238.36450195 31.87695312 C-238.37733719 32.96488159 -238.39017242 34.05281006 -238.40339661 35.17370605 C-238.41078354 36.34357056 -238.41817047 37.51343506 -238.42578125 38.71875 C-238.433853 39.92438599 -238.44192474 41.13002197 -238.45024109 42.37219238 C-238.46406534 44.92080248 -238.4747949 47.46943097 -238.48266602 50.01806641 C-238.4999339 53.92255309 -238.54384277 57.82620499 -238.58789062 61.73046875 C-238.59801295 64.20572294 -238.60653049 66.68098432 -238.61328125 69.15625 C-238.63078934 70.3261145 -238.64829742 71.495979 -238.66633606 72.70129395 C-238.66341049 73.78922241 -238.66048492 74.87715088 -238.6574707 75.99804688 C-238.66333694 76.9541687 -238.66920319 77.91029053 -238.67524719 78.89538574 C-238.03922897 82.2102813 -236.78202766 83.34181743 -234.1875 85.4375 C-231.68381911 86.65499665 -229.25603572 87.72174857 -226.671875 88.73046875 C-225.54391006 89.18584518 -225.54391006 89.18584518 -224.39315796 89.65042114 C-222.76387684 90.30716681 -221.13276694 90.95938986 -219.50006104 91.60757446 C-215.10906861 93.35095063 -210.73105446 95.12641479 -206.3515625 96.8984375 C-205.44135345 97.26574478 -204.53114441 97.63305206 -203.59335327 98.01148987 C-192.5754322 102.47036643 -181.65471117 107.15791246 -170.73815918 111.85848999 C-168.30839417 112.90453552 -165.8769198 113.94652725 -163.4453125 114.98828125 C-162.74054779 115.2938797 -162.03578308 115.59947815 -161.30966187 115.91433716 C-156.35242515 118.03515166 -151.32392253 119.80030559 -146.1875 121.4375 C-145.73476879 125.38860873 -145.91884722 127.04673232 -148.20703125 130.375 C-149.1244112 131.40808099 -150.05636426 132.42834496 -151 133.4375 C-152.01019343 134.57079885 -153.01792748 135.70629378 -154.0234375 136.84375 C-154.54518555 137.42898438 -155.06693359 138.01421875 -155.60449219 138.6171875 C-158.22713374 141.6329826 -160.6749833 144.78106252 -163.125 147.9375 C-163.57270752 148.51242187 -164.02041504 149.08734375 -164.48168945 149.6796875 C-164.90925537 150.22882813 -165.33682129 150.77796875 -165.77734375 151.34375 C-167.31204579 153.3137403 -168.88435864 155.25539817 -170.50390625 157.15625 C-172.48440491 159.36726261 -172.48440491 159.36726261 -172.1875 162.4375 C-165.23116882 165.54616198 -158.27241588 168.64937268 -151.3125 171.75 C-149.77618423 172.43470367 -149.77618423 172.43470367 -148.20883179 173.13323975 C-134.97582448 179.02715849 -121.72957818 184.86536656 -108.32666016 190.36450195 C-107.38999512 190.75210693 -106.45333008 191.13971191 -105.48828125 191.5390625 C-104.69591064 191.86213379 -103.90354004 192.18520508 -103.0871582 192.51806641 C-101.1875 193.4375 -101.1875 193.4375 -99.1875 195.4375 C-99.3131754 201.69290728 -101.74710793 205.5137428 -105.18359375 210.46875 C-105.69116714 211.22232788 -106.19874054 211.97590576 -106.72169495 212.75231934 C-108.34431893 215.15563699 -109.98411309 217.54662456 -111.625 219.9375 C-112.69323677 221.51222136 -113.76030469 223.0877363 -114.82617188 224.6640625 C-116.93995918 227.78710778 -119.05982261 230.90588647 -121.18457031 234.02148438 C-125.09608714 239.76365417 -128.94102997 245.54938367 -132.7875061 251.33520508 C-134.95823424 254.59486981 -137.13697617 257.84916224 -139.31510925 261.10388184 C-141.77342378 264.77777805 -144.22928986 268.45330802 -146.68505859 272.12890625 C-147.94662133 274.01616473 -149.20900396 275.90287539 -150.47216797 277.7890625 C-152.32478106 280.55583463 -154.17438851 283.32459511 -156.0234375 286.09375 C-156.58388763 286.92926392 -157.14433777 287.76477783 -157.72177124 288.62561035 C-159.22826012 290.88512817 -160.71180727 293.15778941 -162.1875 295.4375 C-162.63007141 296.09580811 -163.07264282 296.75411621 -163.52862549 297.43237305 C-165.74418028 300.80723601 -165.74418028 300.80723601 -165.78320312 304.69750977 C-163.64570697 307.02828319 -161.54860364 307.99529652 -158.65625 309.27734375 C-157.53476562 309.78330078 -156.41328125 310.28925781 -155.2578125 310.81054688 C-154.07960938 311.32681641 -152.90140625 311.84308594 -151.6875 312.375 C-149.38475704 313.40347228 -147.08266411 314.43340132 -144.78125 315.46484375 C-143.67136719 315.95968262 -142.56148437 316.45452148 -141.41796875 316.96435547 C-136.94658883 319.003375 -132.55758991 321.19079044 -128.1875 323.4375 C-129.20182076 326.20382934 -129.75655305 327.23538869 -132.47485352 328.51025391 C-133.37002686 328.81624512 -134.2652002 329.12223633 -135.1875 329.4375 C-137.00123668 330.35771089 -138.80126779 331.30523046 -140.58984375 332.2734375 C-141.63462891 332.83740234 -142.67941406 333.40136719 -143.75585938 333.98242188 C-144.86767578 334.58634766 -145.97949219 335.19027344 -147.125 335.8125 C-148.27419922 336.43447266 -149.42339844 337.05644531 -150.60742188 337.69726562 C-152.978666 338.98097806 -155.3488776 340.2665688 -157.71826172 341.55371094 C-160.95750088 343.31261097 -164.19917317 345.06693946 -167.44140625 346.8203125 C-169.35695586 347.85903385 -171.27232979 348.89807928 -173.1875 349.9375 C-174.05109131 350.40462402 -174.91468262 350.87174805 -175.80444336 351.35302734 C-180.06900101 353.6752249 -184.26922549 356.06840344 -188.421875 358.5859375 C-192.021195 360.76432564 -195.64023551 362.74339162 -199.4375 364.5625 C-205.89831418 367.74320852 -212.23833553 371.11840843 -218.5625 374.5625 C-219.4896582 375.06539551 -220.41681641 375.56829102 -221.37207031 376.08642578 C-230.99466161 380.45594747 -230.99466161 380.45594747 -238.1875 387.4375 C-238.28055571 389.13538574 -238.30941835 390.83695097 -238.30775452 392.53738403 C-238.30912918 393.61714508 -238.31050385 394.69690613 -238.31192017 395.80938721 C-238.30832489 396.99909119 -238.30472961 398.18879517 -238.30102539 399.41455078 C-238.30117142 400.66329987 -238.30131744 401.91204895 -238.3014679 403.19863892 C-238.30088952 406.62818663 -238.29586519 410.05767457 -238.28889394 413.4872117 C-238.28265378 417.06934338 -238.28205608 420.65147579 -238.28086853 424.23361206 C-238.27775717 431.0192525 -238.26954641 437.80487689 -238.25951904 444.59051025 C-238.24835184 452.31471216 -238.24284592 460.03891483 -238.23782361 467.7631228 C-238.22736364 483.65459117 -238.20976797 499.54604352 -238.1875 515.4375 C-234.11327722 514.70076685 -231.04897407 513.50785848 -227.3828125 511.55078125 C-226.25367432 510.94935303 -225.12453613 510.3479248 -223.96118164 509.72827148 C-222.74452951 509.06963196 -221.5283125 508.41018814 -220.3125 507.75 C-219.6921286 507.41525665 -219.0717572 507.08051331 -218.43258667 506.73562622 C-169.6813356 480.39861769 -124.35158228 447.25137851 -84.08300781 409.21533203 C-82.20123004 407.45037766 -80.30314016 405.70500918 -78.3984375 403.96484375 C-70.16108009 396.41827907 -62.42593627 388.54928529 -54.89599609 380.29882812 C-53.19063848 378.44091923 -51.46800524 376.60084989 -49.73828125 374.765625 C-44.07336671 368.7474691 -38.59864589 362.66740201 -33.4296875 356.2109375 C-31.3624274 353.65387361 -29.24723251 351.15086038 -27.10644531 348.65576172 C-21.97567045 342.66868066 -17.10160064 336.55129057 -12.45654297 330.17480469 C-11.03361376 328.22683157 -9.59649953 326.28966359 -8.16015625 324.3515625 C2.88361516 309.35788969 12.84766954 293.76401162 21.74023438 277.40136719 C22.81746506 275.42840643 23.91565352 273.46816731 25.015625 271.5078125 C41.99259363 240.85257648 53.28409825 206.16759921 57.8125 171.4375 C57.95824463 170.3242334 57.95824463 170.3242334 58.10693359 169.18847656 C59.00074592 161.45708015 59.05481 153.71276696 59.0625 145.9375 C59.06350708 145.22785095 59.06451416 144.5182019 59.06555176 143.78704834 C59.05568174 133.48303583 58.57301473 123.55071331 56.27441406 113.47509766 C55.77804621 111.28551728 55.33614653 109.088739 54.8984375 106.88671875 C47.82937042 72.16609161 30.72066089 41.20808337 7.8125 14.4375 C7.20921875 13.71175781 6.6059375 12.98601562 5.984375 12.23828125 C1.96270336 7.48292626 -2.35132715 3.35804632 -7.1875 -0.5625 C-8.04988281 -1.26246094 -8.91226563 -1.96242188 -9.80078125 -2.68359375 C-24.16089461 -13.89575263 -40.37438837 -22.05862238 -57.8125 -27.3125 C-58.46855225 -27.51133789 -59.12460449 -27.71017578 -59.80053711 -27.91503906 C-70.99464665 -31.12003151 -82.01649704 -31.93940176 -93.625 -31.875 C-94.67672394 -31.87176727 -94.67672394 -31.87176727 -95.74969482 -31.86846924 C-137.54869966 -31.66320574 -176.72212419 -16.42493012 -212.375 4.625 Z " fill="#317862" transform="translate(751.1875,182.5625)"/>
<path d="M0 0 C5.94 0 11.88 0 18 0 C23.85478903 7.66698563 23.85478903 7.66698563 25.48046875 11.49609375 C27.36965423 15.71698372 29.45289709 19.79464924 31.67578125 23.84765625 C32.15695908 24.72556824 32.15695908 24.72556824 32.64785767 25.62121582 C33.29698339 26.80441689 33.94646833 27.98742095 34.59631348 29.17022705 C36.14771252 32.00792505 37.66953553 34.86122981 39.19140625 37.71484375 C39.70904541 38.68542725 40.22668457 39.65601074 40.76000977 40.65600586 C41.52182491 42.09608998 42.27141169 43.54282339 43 45 C43 30.15 43 15.3 43 0 C47.62 0 52.24 0 57 0 C57 22.11 57 44.22 57 67 C51.06 67 45.12 67 39 67 C30.30443932 51.8388692 22.00914689 36.53581505 14 21 C13.67 36.18 13.34 51.36 13 67 C8.71 67 4.42 67 0 67 C0 44.89 0 22.78 0 0 Z " fill="#2C7865" transform="translate(748,748)"/>
<path d="M0 0 C2.49704611 2.79081624 4.30370959 5.66900067 6 9 C6.33902344 9.65355469 6.67804687 10.30710937 7.02734375 10.98046875 C10.75284601 19.85643497 10.39548941 32.00103177 7.375 41.0625 C3.3127404 50.42274153 -2.26962422 56.2693904 -11.734375 60.109375 C-20.63320533 62.53632873 -31.64447287 62.25207421 -39.9921875 58.19140625 C-48.07255934 53.39663308 -52.33915965 47.12842117 -54.8125 38.125 C-57.05699931 27.89008315 -56.91749011 17.07522456 -51.7109375 7.671875 C-46.1694972 -0.0920681 -39.47551504 -5.48445393 -30.0625 -7.6875 C-18.7408001 -8.8427755 -9.10303683 -7.24527422 0 0 Z M-36.25 10.3125 C-41.08287939 17.73442191 -41.2193438 26.96043772 -39.5 35.4765625 C-37.66689562 40.87172197 -34.62642186 45.43834376 -29.6875 48.375 C-24.4473783 49.59363295 -20.06186927 49.85321593 -15.25 47.375 C-10.65430285 44.38099229 -8.25273727 40.40044378 -6.75 35.1875 C-4.98326747 26.8154161 -5.45311572 18.53313947 -10.171875 11.171875 C-13.07047631 7.48599926 -15.68766864 5.29381108 -20.3671875 4.69921875 C-27.01436866 4.66815716 -31.42481824 5.35328541 -36.25 10.3125 Z " fill="#2C7865" transform="translate(727,755)"/>
<path d="M0 0 C2.49704611 2.79081624 4.30370959 5.66900067 6 9 C6.33902344 9.65355469 6.67804687 10.30710937 7.02734375 10.98046875 C10.75284601 19.85643497 10.39548941 32.00103177 7.375 41.0625 C3.3127404 50.42274153 -2.26962422 56.2693904 -11.734375 60.109375 C-20.63320533 62.53632873 -31.64447287 62.25207421 -39.9921875 58.19140625 C-48.07255934 53.39663308 -52.33915965 47.12842117 -54.8125 38.125 C-57.05699931 27.89008315 -56.91749011 17.07522456 -51.7109375 7.671875 C-46.1694972 -0.0920681 -39.47551504 -5.48445393 -30.0625 -7.6875 C-18.7408001 -8.8427755 -9.10303683 -7.24527422 0 0 Z M-36.25 10.3125 C-41.08287939 17.73442191 -41.2193438 26.96043772 -39.5 35.4765625 C-37.66689562 40.87172197 -34.62642186 45.43834376 -29.6875 48.375 C-24.4473783 49.59363295 -20.06186927 49.85321593 -15.25 47.375 C-10.65430285 44.38099229 -8.25273727 40.40044378 -6.75 35.1875 C-4.98326747 26.8154161 -5.45311572 18.53313947 -10.171875 11.171875 C-13.07047631 7.48599926 -15.68766864 5.29381108 -20.3671875 4.69921875 C-27.01436866 4.66815716 -31.42481824 5.35328541 -36.25 10.3125 Z " fill="#2C7865" transform="translate(506,755)"/>
<path d="M0 0 C38.28571429 0 38.28571429 0 46.4375 5.1875 C50.19274226 9.30910736 51.88578578 12.92097503 52.09375 18.52734375 C51.76010559 24.0741821 50.55094452 27.58822045 47 32 C46.34 32.99 45.68 33.98 45 35 C45.639375 35.928125 46.27875 36.85625 46.9375 37.8125 C49.54769424 41.84643656 50.1346229 44.62382079 50.31640625 49.32421875 C50.35830078 50.35224609 50.40019531 51.38027344 50.44335938 52.43945312 C50.48267578 53.51130859 50.52199219 54.58316406 50.5625 55.6875 C50.60568359 56.77095703 50.64886719 57.85441406 50.69335938 58.97070312 C50.79946838 61.64700791 50.90152361 64.32340526 51 67 C48.68756208 67.02685412 46.3750373 67.04632841 44.0625 67.0625 C42.77472656 67.07410156 41.48695313 67.08570313 40.16015625 67.09765625 C37 67 37 67 36 66 C35.83349928 64.47573439 35.72425741 62.94511238 35.640625 61.4140625 C35.57617188 60.48335937 35.51171875 59.55265625 35.4453125 58.59375 C35.31567949 56.62332825 35.2009561 54.65186586 35.1015625 52.6796875 C34.83458182 47.22514909 34.83458182 47.22514909 31.91015625 42.87890625 C28.32836619 41.79715757 24.90070203 41.43782817 21.1875 41.3125 C18.815625 41.209375 16.44375 41.10625 14 41 C14 49.58 14 58.16 14 67 C9.38 67 4.76 67 0 67 C0 44.89 0 22.78 0 0 Z M14 12 C14 17.61 14 23.22 14 29 C24.97121347 29.58611026 24.97121347 29.58611026 35 26 C36.43155899 24.78410016 36.43155899 24.78410016 36.3125 21.1875 C36.26815725 18.0945931 36.13323299 17.19244765 34.3125 14.5625 C29.94968875 11.61465456 25.3222537 11.8856338 20.1875 11.9375 C17.1246875 11.9684375 17.1246875 11.9684375 14 12 Z " fill="#2C7865" transform="translate(266,748)"/>
<path d="M0 0 C4.62 0 9.24 0 14 0 C14.33 9.24 14.66 18.48 15 28 C22.44493514 19.93803843 22.44493514 19.93803843 29.75 11.75 C30.30558594 11.13640625 30.86117188 10.5228125 31.43359375 9.890625 C33.07111151 8.01336463 33.07111151 8.01336463 34.34765625 5.734375 C36.09128135 3.07476552 37.24847151 1.64577405 40 0 C45.94214158 -0.98801787 52.02704264 -0.45508247 58 0 C56.41568547 3.90851199 53.73364905 6.52367356 50.7734375 9.421875 C50.26575836 9.92672424 49.75807922 10.43157349 49.23501587 10.95172119 C47.61966158 12.55592096 45.99747791 14.15300856 44.375 15.75 C43.27558302 16.83938107 42.17661941 17.9292199 41.078125 19.01953125 C38.3906398 21.68501885 35.69700979 24.34415143 33 27 C34.18114281 30.16011672 35.42820041 32.87195919 37.3984375 35.609375 C37.87249023 36.27388672 38.34654297 36.93839844 38.83496094 37.62304688 C39.34317383 38.32494141 39.85138672 39.02683594 40.375 39.75 C41.45058755 41.25516066 42.52610623 42.76037054 43.6015625 44.265625 C44.1574707 45.03970703 44.71337891 45.81378906 45.28613281 46.61132812 C48.12206436 50.56385722 50.93734528 54.53089026 53.75 58.5 C54.27513184 59.23573242 54.80026367 59.97146484 55.34130859 60.72949219 C59 65.88676199 59 65.88676199 59 67 C46.09684772 68.40477868 46.09684772 68.40477868 40 67 C36.46491054 64.1370393 34.86279314 60.91246013 32.95263672 56.83203125 C31.18207357 53.4270323 28.79609067 50.43885223 26.5 47.375 C22 41.29655095 22 41.29655095 22 39 C18.33555791 41.23198379 15.45257866 43.27592217 14.32861328 47.55761719 C14.08824562 50.51419026 14.02996982 53.40901333 14.0625 56.375 C14.04638672 57.39722656 14.03027344 58.41945313 14.01367188 59.47265625 C13.97850077 61.98152846 13.98509039 64.49092558 14 67 C9.38 67 4.76 67 0 67 C0 44.89 0 22.78 0 0 Z " fill="#2C7865" transform="translate(390,748)"/>
<path d="M0 0 C15.51 0 31.02 0 47 0 C47 4.29 47 8.58 47 13 C36.11 13 25.22 13 14 13 C14 17.29 14 21.58 14 26 C24.56 26 35.12 26 46 26 C46 30.29 46 34.58 46 39 C35.44 39 24.88 39 14 39 C14 44.28 14 49.56 14 55 C25.55 55 37.1 55 49 55 C48.67 58.96 48.34 62.92 48 67 C32.16 67 16.32 67 0 67 C0 44.89 0 22.78 0 0 Z " fill="#2C7865" transform="translate(330,748)"/>
<path d="M0 0 C5.93815063 4.85848688 8.35046573 8.87063747 9.75 16.25 C4.47 16.25 -0.81 16.25 -6.25 16.25 C-6.91 14.6 -7.57 12.95 -8.25 11.25 C-11.05441088 9.27321781 -13.42789231 8.97709233 -16.8125 9 C-17.95912109 8.99226562 -17.95912109 8.99226562 -19.12890625 8.984375 C-21.54982762 9.1270439 -21.54982762 9.1270439 -24.25 11.25 C-25.28332289 13.63459128 -25.40420205 14.78273997 -24.58666992 17.26000977 C-22.76141369 19.97739124 -21.16328594 20.29008924 -18.05078125 21.21484375 C-17.00599609 21.54033203 -15.96121094 21.86582031 -14.88476562 22.20117188 C-13.78841797 22.52666016 -12.69207031 22.85214844 -11.5625 23.1875 C4.2244862 27.90186632 4.2244862 27.90186632 9.625 34.5625 C12.38067378 41.14549847 12.30791924 47.63510187 9.75 54.25 C6.7714106 59.52220702 2.59361708 62.59839657 -3.07421875 64.59375 C-14.24803256 66.90272998 -26.01155282 66.36275408 -36 60.6875 C-40.28671963 56.04355373 -43.25 50.60255304 -43.25 44.25 C-38.3 44.25 -33.35 44.25 -28.25 44.25 C-27.26 46.23 -26.27 48.21 -25.25 50.25 C-20.5056238 52.98714012 -16.68509536 53.75324957 -11.25 53.25 C-8.43428569 52.49267038 -8.43428569 52.49267038 -6.25 51.25 C-4.85064987 48.45129973 -4.99734595 46.34501208 -5.25 43.25 C-7.43904831 40.38218385 -9.66002646 39.5924867 -13.07421875 38.63671875 C-14.02103516 38.35763672 -14.96785156 38.07855469 -15.94335938 37.79101562 C-17.91830839 37.22803277 -19.89485292 36.67061319 -21.87304688 36.11914062 C-29.40844412 33.88246761 -35.60068516 30.975599 -40.25 24.4375 C-42.00696082 18.83718739 -41.80678507 14.18237173 -40.1875 8.5625 C-36.98109691 3.08058504 -32.45733178 -0.99921411 -26.25 -2.75 C-17.31369759 -4.73584498 -8.13561682 -4.38071675 0 0 Z " fill="#2C7865" transform="translate(565.25,750.75)"/>
<path d="M0 0 C38.44444444 0 38.44444444 0 46 6 C51.39693424 13.19591232 51.57401343 19.22734199 51 28 C49.29224086 33.52510311 45.60835605 36.71999492 41 40 C35.05526907 43.04486218 28.6855027 43.14448814 22.125 43.0625 C19.77375 43.041875 17.4225 43.02125 15 43 C15 50.92 15 58.84 15 67 C10.05 67 5.1 67 0 67 C0 44.89 0 22.78 0 0 Z M15 12 C15 17.94 15 23.88 15 30 C17.536875 30.103125 20.07375 30.20625 22.6875 30.3125 C23.47729248 30.35802002 24.26708496 30.40354004 25.08081055 30.45043945 C29.15837291 30.53035122 30.62284704 30.29114429 33.98046875 27.69921875 C36.25621917 25.07863957 36.25621917 25.07863957 36.625 21.5 C35.8379108 17.09230048 34.54113128 15.67552141 31 13 C27.36242182 12.01072621 23.94394795 11.89224159 20.1875 11.9375 C18.475625 11.958125 16.76375 11.97875 15 12 Z " fill="#2C7865" transform="translate(204,748)"/>
<path d="M0 0 C18.15 0 36.3 0 55 0 C55 4.29 55 8.58 55 13 C48.4 13 41.8 13 35 13 C35 30.82 35 48.64 35 67 C30.05 67 25.1 67 20 67 C20 49.18 20 31.36 20 13 C13.4 13 6.8 13 0 13 C0 8.71 0 4.42 0 0 Z " fill="#2C7865" transform="translate(581,748)"/>
<path d="M0 0 C4.95 0 9.9 0 15 0 C15 22.11 15 44.22 15 67 C10.05 67 5.1 67 0 67 C0 44.89 0 22.78 0 0 Z " fill="#2C7865" transform="translate(645,748)"/>
</svg>
