<svg id="Layer_1" data-name="Layer 1" xmlns="http://www.w3.org/2000/svg" viewBox="0 0 499 499"><defs><style>.cls-1{fill:#2c7865;}.cls-2{fill:#ff9800;stroke:#2c7865;stroke-miterlimit:10;stroke-width:2px;}</style></defs><path class="cls-1" d="M244.49,412.19c0,15.61-.09,31.23.06,46.84,0,4.35-1,5.4-5.2,3.38-30.44-14.48-58.14-33.25-84.49-54.08a491.06,491.06,0,0,1-80.47-79.86c-22.75-28.67-41.53-59.74-52.62-94.86C8,189.94,8.29,147,30.69,105.79,41.79,85.39,55.5,67,75.47,54.38c19.7-12.46,41.46-17.56,64.69-15.93,30.62,2.15,58.27,13.18,84.24,28.92,5.83,3.53,11.35,7.56,17.09,11.24,2.39,1.53,3.21,3.49,3.19,6.28-.1,13.28-.18,26.56,0,39.84.06,4-1.66,4.64-5.11,4.84-39.86,2.2-71.12,20-92.89,53.28-19.76,30.24-23,63.11-12.94,97.57,1.24,4.24,2.95,4.57,6.37,2.36s7.21-4,10.72-6.19c3.15-1.93,6.23-3.48,10.06-1.95,2,.82,3.83-.3,5.57-1.3,6.39-3.64,12.74-7.36,19.22-10.84,2.63-1.42,3.76-3.66,4.75-6.22,1.49-3.84,3.18-7.61,4.68-11.46,1.86-4.76.49-7.51-4.31-8.93-6.16-1.82-13.84-12.22-14.51-20-.69-8,2.88-13.71,9.87-17.6,10.83-6,21.48-12.35,32.29-18.39,11.7-6.54,20.48-4.09,27.07,7.51,2.94,5.16,6.93,9.88,3.67,16.85-1.41,3,1.12,6.41,5.14,6.53s6,2.41,7.73,5.6c4.41,8,8.92,16,13.7,23.78,1.86,3.06,2.24,5.65.77,9-2.06,4.64-.4,7.55,4.51,8.62,10,2.19,11.19,11.38,13.87,18.66,2.43,6.57-.43,13.2-6.47,16.87q-19.53,11.87-39.79,22.56a14.89,14.89,0,0,1-18.94-4.35c-3.24-4.24-5.65-9.13-8.37-13.77-1.41-2.41.38-4.5,1-6.67,1.18-4.52-.38-7.34-5-8.18-4.77-.86-9.57-1.56-14.37-2.15-5.26-.65-27.8,12.38-29.64,17.28a10,10,0,0,1-5.2,5.75c-4.47,2.29-8.67,5.1-13.16,7.36-3.33,1.67-4.1,3.09-1.44,6.31,19.23,23.21,43.38,37.78,73.37,42.22a82.85,82.85,0,0,0,12.85,1.09c3.9,0,4.83,1.54,4.79,5.12C244.4,381.32,244.48,396.75,244.49,412.19Z"/><path class="cls-2" d="M339.2,313.65c-7-3.13-13.78-6.18-20.59-9.2-10.41-4.62-10.39-4.6-4.06-14.16,15.46-23.35,30.81-46.76,46.42-70,2.31-3.43,2.42-4.74-1.67-6.48-16.85-7.18-33.48-14.84-50.34-22-4.5-1.92-4.87-3.53-1.75-7.14,5.48-6.34,10.59-13,15.9-19.5,4.28-5.25,4.32-5.27-1.73-7.82-20.52-8.65-41-17.41-61.61-25.77-4.33-1.75-5.39-4.13-5.29-8.42.26-11.12.45-22.27,0-33.38C254.13,83,256,78.87,262,75c20.2-13,41.23-24,64.39-30.73,32.94-9.54,65-8.95,95.2,9.11,18.32,11,31.53,27,42.45,45,23.78,39.25,27.86,81.13,16.17,125-9.78,36.66-28.15,69-51.12,98.82-42.88,55.66-95.55,100-157,133.86-4.24,2.34-8.68,4.32-12.92,6.66-3.34,1.84-4.71,1.45-4.66-2.74.14-11.66,0-23.33,0-35,0-19.56.12-39.13,0-58.69,0-3.59.85-5.73,4.3-7.58,24.67-13.25,49.19-26.77,73.74-40.26C334.68,317.17,337.23,316.5,339.2,313.65Z"/></svg>